<svg version="1.1" xmlns="http://www.w3.org/2000/svg" x="0" y="0" viewBox="0 0 803 74" xml:space="preserve"><style>.st6{fill:#969696}</style><path d="M792 2H12C6.48 2 2 6.48 2 12v61h800V12c0-5.52-4.48-10-10-10z" fill="#c8c8c8"/><path d="M441.46 13.93H269.54c-6.58 0-8.5 23.96-16.04 23.96h204c-7.54 0-9.46-23.96-16.04-23.96z" fill="#d6d6d6"/><path d="M179.7 37.95h-1.5l-109.25.03c7.54 0 9.46-23.99 16.04-23.99h170.92c6.58 0 8.5 23.99 16.04 23.99l-92.25-.03zM2 73V38h800v35H2z" fill="#e6e6e6"/><path d="M93.99 43.96h669c2.21 0 4 1.79 4 4v15.05c0 2.21-1.79 4-4 4h-669c-2.21 0-4-1.79-4-4V47.96c0-2.21 1.79-4 4-4z" fill-rule="evenodd" clip-rule="evenodd" fill="#fff"/><path d="M435 19.97c3.31 0 6 2.69 6 6s-2.69 6-6 6-6-2.69-6-6 2.69-6 6-6z" fill-rule="evenodd" clip-rule="evenodd" fill="#c8c8c8"/><path d="M250 19.97c3.31 0 6 2.69 6 6s-2.69 6-6 6-6-2.69-6-6 2.69-6 6-6z" fill-rule="evenodd" clip-rule="evenodd" fill="#d2d2d2"/><path class="st6" d="M789.5 51.97h-10c-.83 0-1.5-.67-1.5-1.5s.67-1.5 1.5-1.5h10c.83 0 1.5.67 1.5 1.5s-.67 1.5-1.5 1.5zm0 5h-10c-.83 0-1.5-.67-1.5-1.5s.67-1.5 1.5-1.5h10c.83 0 1.5.67 1.5 1.5s-.67 1.5-1.5 1.5zm0 5h-10c-.83 0-1.5-.67-1.5-1.5s.67-1.5 1.5-1.5h10c.83 0 1.5.67 1.5 1.5s-.67 1.5-1.5 1.5zM79.99 54.98v-7l-2.55 2.55c-1.27-1.27-3-2.07-4.93-2.07-3.87 0-7 3.13-7 7 0 3.86 3.13 7 7 7 3.33 0 6.12-2.33 6.82-5.45h-2.61a4.482 4.482 0 0 1-4.21 2.95c-2.48 0-4.5-2.02-4.5-4.5s2.02-4.5 4.5-4.5c1.24 0 2.35.51 3.17 1.33l-2.69 2.69h7z"/><path d="M54.11 54.46c-.03-.03-.06-.04-.09-.06l-4.92-4.91a1.49 1.49 0 0 0-2.12 0 1.49 1.49 0 0 0 0 2.12l2.41 2.41h-7.96c-.83 0-1.5.67-1.5 1.5s.67 1.5 1.5 1.5h7.99l-2.44 2.44a1.49 1.49 0 0 0 0 2.12c.59.59 1.54.59 2.12 0l4.91-4.91c.03-.03.07-.03.09-.06.3-.3.44-.69.44-1.08.01-.39-.13-.78-.43-1.07z" fill="#cecece"/><path class="st6" d="M25.49 54.02h-7.96l2.41-2.41c.59-.59.59-1.54 0-2.12a1.49 1.49 0 0 0-2.12 0L12.9 54.4c-.03.02-.06.03-.09.06-.3.3-.44.69-.44 1.08 0 .39.14.78.44 1.08.03.03.06.04.09.06l4.91 4.91c.59.59 1.54.59 2.12 0 .59-.59.59-1.54 0-2.12l-2.44-2.44h7.99c.83 0 1.5-.67 1.5-1.5a1.48 1.48 0 0 0-1.49-1.51z"/><path d="M60 14.97c3.31 0 6 2.69 6 6s-2.69 6-6 6-6-2.69-6-6 2.69-6 6-6z" fill-rule="evenodd" clip-rule="evenodd" fill="#36d488"/><path d="M40 14.97c3.31 0 6 2.69 6 6s-2.69 6-6 6-6-2.69-6-6 2.69-6 6-6z" fill-rule="evenodd" clip-rule="evenodd" fill="#dfbc43"/><path d="M20 14.97c3.31 0 6 2.69 6 6s-2.69 6-6 6-6-2.69-6-6 2.69-6 6-6z" fill-rule="evenodd" clip-rule="evenodd" fill="#e76d6b"/></svg>
