<svg version="1.1" id="Vrstva_1" xmlns="http://www.w3.org/2000/svg" x="0" y="0" viewBox="0 0 800 71" xml:space="preserve"><style>.st6{fill:#969696}</style><path d="M790 0H10C4.5 0 0 4.5 0 10v61h800V10c0-5.5-4.5-10-10-10z" fill="#c8c8c8"/><path d="M439.5 11.9h-172c-6.6 0-8.5 24-16 24h204c-7.5 0-9.5-24-16-24z" fill="#d6d6d6"/><path d="M177.7 36H66.9c7.5 0 9.5-24 16-24h170.9c6.6 0 8.5 24 16 24h-92.1zM0 71V36h800v35H0z" fill="#e6e6e6"/><path d="M92 42h669c2.2 0 4 1.8 4 4v15c0 2.2-1.8 4-4 4H92c-2.2 0-4-1.8-4-4V46c0-2.2 1.8-4 4-4z" fill-rule="evenodd" clip-rule="evenodd" fill="#fff"/><path d="M433 18c3.3 0 6 2.7 6 6s-2.7 6-6 6-6-2.7-6-6 2.7-6 6-6z" fill-rule="evenodd" clip-rule="evenodd" fill="#c8c8c8"/><path d="M248 18c3.3 0 6 2.7 6 6s-2.7 6-6 6-6-2.7-6-6 2.7-6 6-6z" fill-rule="evenodd" clip-rule="evenodd" fill="#d2d2d2"/><path class="st6" d="M787.5 50h-10c-.8 0-1.5-.7-1.5-1.5s.7-1.5 1.5-1.5h10c.8 0 1.5.7 1.5 1.5s-.7 1.5-1.5 1.5zm0 5h-10c-.8 0-1.5-.7-1.5-1.5s.7-1.5 1.5-1.5h10c.8 0 1.5.7 1.5 1.5s-.7 1.5-1.5 1.5zm0 5h-10c-.8 0-1.5-.7-1.5-1.5s.7-1.5 1.5-1.5h10c.8 0 1.5.7 1.5 1.5s-.7 1.5-1.5 1.5zM78 53v-7l-2.6 2.5c-1.3-1.3-3-2.1-4.9-2.1-3.9 0-7 3.1-7 7s3.1 7 7 7c3.3 0 6.1-2.3 6.8-5.5h-2.6c-.6 1.8-2.3 2.9-4.2 3-2.5 0-4.5-2-4.5-4.5s2-4.5 4.5-4.5c1.2 0 2.3.5 3.2 1.3L71 53h7z"/><path d="M52.1 52.5c0-.1-.1-.1 0 0l-5-5c-.6-.6-1.5-.6-2.1 0-.6.6-.6 1.5 0 2.1l2.4 2.4h-8c-.8 0-1.5.7-1.5 1.5s.7 1.5 1.5 1.5h8L45 57.5c-.6.6-.6 1.5 0 2.1.6.6 1.5.6 2.1 0l4.9-4.9s.1 0 .1-.1c.3-.3.4-.7.4-1.1 0-.4-.1-.8-.4-1z" fill="#cecece"/><path class="st6" d="M23.5 52h-8l2.4-2.4c.6-.6.6-1.5 0-2.1-.6-.6-1.5-.6-2.1 0l-4.9 4.9s-.1 0-.1.1c-.3.3-.4.7-.4 1.1 0 .4.1.8.4 1.1 0 0 .1 0 .1.1l4.9 4.9c.6.6 1.5.6 2.1 0 .6-.6.6-1.5 0-2.1L15.5 55h8c.8 0 1.5-.7 1.5-1.5s-.7-1.5-1.5-1.5z"/><path d="M58 13c3.3 0 6 2.7 6 6s-2.7 6-6 6-6-2.7-6-6 2.7-6 6-6z" fill-rule="evenodd" clip-rule="evenodd" fill="#36d488"/><path d="M38 13c3.3 0 6 2.7 6 6s-2.7 6-6 6-6-2.7-6-6 2.7-6 6-6z" fill-rule="evenodd" clip-rule="evenodd" fill="#dfbc43"/><path d="M18 13c3.3 0 6 2.7 6 6s-2.7 6-6 6-6-2.7-6-6 2.7-6 6-6z" fill-rule="evenodd" clip-rule="evenodd" fill="#e76d6b"/></svg>